<svg version="1.1" id="Layer_1" xmlns="http://www.w3.org/2000/svg" xmlns:xlink="http://www.w3.org/1999/xlink" x="0px" y="0px" width="25px" height="25px" viewBox="0 0 24 24" style="enable-background:new 0 0 24 24;" xml:space="preserve">


	<path class="st0" d="M20.4,6.1c-0.8-1.4-1.9-2.5-3.3-3.3c-1.4-0.8-2.9-1.2-4.6-1.2c-1.7,0-3.2,0.4-4.6,1.2
			C6.4,3.6,5.3,4.7,4.5,6.1C3.7,7.5,3.3,9,3.3,10.7s0.4,3.2,1.2,4.6c0.8,1.4,1.9,2.5,3.3,3.3c1.4,0.8,2.9,1.2,4.6,1.2
			s3.2-0.4,4.6-1.2c1.4-0.8,2.5-1.9,3.3-3.3c0.8-1.4,1.2-2.9,1.2-4.6C21.7,9,21.3,7.5,20.4,6.1z M14,16.4c0,0.1,0,0.2-0.1,0.3
			c-0.1,0.1-0.2,0.1-0.3,0.1h-2.3c-0.1,0-0.2,0-0.3-0.1c-0.1-0.1-0.1-0.2-0.1-0.3v-2.3c0-0.1,0-0.2,0.1-0.3c0.1-0.1,0.2-0.1,0.3-0.1
			h2.3c0.1,0,0.2,0,0.3,0.1C14,14,14,14.1,14,14.2L14,16.4L14,16.4z M14,12.3c0,0.1,0,0.1-0.1,0.2c-0.1,0.1-0.2,0.1-0.3,0.1h-2.2
			c-0.1,0-0.2,0-0.3-0.1c-0.1-0.1-0.1-0.1-0.1-0.2l-0.2-7.4c0-0.1,0-0.2,0.1-0.2c0.1-0.1,0.2-0.1,0.3-0.1h2.6c0.1,0,0.2,0,0.3,0.1
			c0.1,0,0.1,0.1,0.1,0.2L14,12.3z" id="id_101" fill="#FF5364">
	</path>
</svg>