<svg xmlns="http://www.w3.org/2000/svg" xml:space="preserve" width="20px" height="20px" version="1.1" style="shape-rendering:geometricPrecision; text-rendering:geometricPrecision; image-rendering:optimizeQuality; fill-rule:evenodd; clip-rule:evenodd" viewBox="0 0 512 512" xmlns:xlink="http://www.w3.org/1999/xlink">
 <defs>
  <style type="text/css">
   
    .fil0 {fill:#5EAC24}
    .fil1 {fill:#96C970}
    .fil2 {fill:white}
   
  </style>
 </defs>
 <g id="Layer_x0020_1">
  <metadata id="CorelCorpID_0Corel-Layer"></metadata>
  <g id="_328451152">
   <path class="fil0" d="M256 512c-141,0 -256,-115 -256,-256 0,-141 115,-256 256,-256 141,0 256,115 256,256 0,141 -115,256 -256,256z" id="id_101" style="fill: rgb(41, 199, 230);"></path>
   <path class="fil1" d="M256 474c-120,0 -218,-98 -218,-218 0,-120 98,-218 218,-218 120,0 218,98 218,218 0,120 -97,218 -218,218z" id="id_102" style="fill: rgb(42, 200, 232);"></path>
   <path class="fil2" d="M203 381c-2,0 -4,-1 -5,-2l-105 -104c-3,-3 -3,-8 0,-11l39 -38c1,-2 3,-2 5,-2 0,0 0,0 0,0 2,0 3,0 5,2l60 61 154 -154c3,-3 8,-3 11,0l38 39c2,1 2,3 2,5 0,1 0,3 -2,5l-197 197c-2,1 -3,2 -5,2z" id="id_103"></path>
  </g>
 </g>
</svg>